<svg width="565" height="312" viewBox="0 0 565 312" fill="none" xmlns="http://www.w3.org/2000/svg">
<g clip-path="url(#clip0)">
<path d="M533.988 310.611C529.194 310.374 524.826 308.069 522.851 304.499C522.758 304.332 522.671 304.162 522.589 303.991C521.868 302.469 521.643 300.72 522.431 299.222C523.22 297.723 525.19 296.584 527.169 296.82C529.148 297.057 530.692 298.937 529.874 300.425C529.691 297.418 529.541 294.258 531.576 291.641C532.697 290.273 534.158 289.373 535.743 289.076C539.844 288.217 542.567 290.979 543.112 293.768C543.515 295.827 542.959 297.921 542.405 299.956C544.111 297.554 548.168 296.485 551.274 297.619C554.381 298.754 556.105 301.934 555.043 304.572C553.792 307.679 549.624 309.285 545.752 310.134C542.555 310.835 537.76 310.798 533.988 310.611Z" fill="#F2F2F2"/>
<path d="M367.079 310.611C362.285 310.374 357.917 308.069 355.941 304.499C355.849 304.332 355.762 304.162 355.68 303.991C354.959 302.469 354.734 300.72 355.522 299.222C356.311 297.723 358.281 296.584 360.26 296.82C362.238 297.057 363.783 298.937 362.964 300.425C362.781 297.418 362.632 294.258 364.667 291.641C365.787 290.273 367.249 289.373 368.834 289.076C372.935 288.217 375.658 290.979 376.203 293.768C376.605 295.827 376.049 297.921 375.496 299.956C377.202 297.554 381.258 296.485 384.365 297.619C387.472 298.754 389.195 301.934 388.134 304.572C386.883 307.679 382.715 309.285 378.843 310.134C375.645 310.835 370.851 310.798 367.079 310.611Z" fill="#F2F2F2"/>
<path d="M213.481 131.427H179.099C176.364 131.424 173.743 130.128 171.809 127.825C169.875 125.521 168.787 122.398 168.784 119.141V42.4439C168.787 39.1865 169.875 36.0635 171.809 33.7602C173.743 31.4568 176.364 30.1612 179.099 30.1575H213.481C216.216 30.1612 218.837 31.4568 220.771 33.7602C222.705 36.0635 223.793 39.1865 223.796 42.4439V119.141C223.793 122.398 222.705 125.521 220.771 127.825C218.837 130.128 216.216 131.424 213.481 131.427V131.427Z" fill="#F2F2F2"/>
<path d="M424.653 302.452H416.99L413.343 267.24L424.654 267.24L424.653 302.452Z" fill="#FFB8B8"/>
<path d="M426.608 311.301L401.896 311.3V310.928C401.896 309.423 402.145 307.933 402.628 306.543C403.112 305.153 403.82 303.89 404.713 302.826C405.607 301.762 406.667 300.919 407.834 300.343C409.001 299.767 410.252 299.471 411.515 299.471H411.515L426.608 299.471L426.608 311.301Z" fill="#2F2E41"/>
<path d="M510.268 293.911L503.044 296.958L489.738 265.216L500.4 260.719L510.268 293.911Z" fill="#FFB8B8"/>
<path d="M514.591 301.475L491.297 311.301L491.192 310.95C490.77 309.532 490.587 308.029 490.653 306.526C490.72 305.024 491.033 303.551 491.577 302.193C492.121 300.835 492.884 299.618 493.822 298.611C494.761 297.604 495.857 296.828 497.048 296.325L497.048 296.325L511.275 290.324L514.591 301.475Z" fill="#2F2E41"/>
<path d="M424.44 290.629C424.268 290.629 424.096 290.61 423.927 290.574L414.555 288.544C413.917 288.404 413.339 288.006 412.919 287.418C412.498 286.83 412.259 286.087 412.244 285.315C410.882 210.171 417.579 159.675 432.15 123.48C432.409 122.84 432.834 122.315 433.361 121.982C433.889 121.65 434.492 121.527 435.083 121.632L468.784 127.428C469.4 127.535 469.968 127.881 470.401 128.412C470.834 128.944 471.107 129.631 471.177 130.367L474.149 161.57C474.165 161.738 474.195 161.904 474.238 162.066L506.55 277.386C506.77 278.225 506.706 279.134 506.371 279.917C506.037 280.701 505.458 281.297 504.758 281.579L496.026 285.046C495.384 285.297 494.687 285.266 494.062 284.958C493.437 284.649 492.926 284.084 492.62 283.365L448.913 185.196C448.826 184.989 448.687 184.82 448.516 184.711C448.346 184.602 448.15 184.558 447.958 184.587C447.766 184.616 447.585 184.714 447.442 184.87C447.299 185.026 447.199 185.23 447.158 185.456L427.178 287.995C427.043 288.741 426.698 289.409 426.2 289.888C425.701 290.368 425.08 290.629 424.44 290.629Z" fill="#2F2E41"/>
<path d="M397.805 62.6214C397.881 63.0232 397.931 63.4315 397.954 63.8427L424.808 82.2961L431.335 77.8202L438.294 88.6711L427.385 97.9325C426.504 98.6807 425.443 99.0682 424.361 99.0368C423.279 99.0054 422.235 98.5568 421.385 97.7584L393.694 71.7366C392.444 72.2877 391.083 72.3724 389.792 71.9797C388.501 71.5869 387.341 70.7352 386.466 69.5379C385.591 68.3406 385.043 66.8544 384.895 65.277C384.746 63.6996 385.005 62.1057 385.635 60.7074C386.266 59.3091 387.239 58.1726 388.425 57.449C389.611 56.7255 390.954 56.4493 392.275 56.6571C393.596 56.8649 394.833 57.5468 395.821 58.6122C396.808 59.6776 397.5 61.076 397.805 62.6214V62.6214Z" fill="#FFB8B8"/>
<path d="M425.177 80.4515C425.258 79.9797 425.423 79.5343 425.662 79.1455C425.9 78.7568 426.207 78.434 426.559 78.199L438.883 69.9911C440.52 68.4856 442.592 67.8148 444.643 68.126C446.695 68.4372 448.56 69.7048 449.828 71.6511C451.096 73.5973 451.665 76.0632 451.409 78.5081C451.154 80.953 450.094 83.1772 448.464 84.6932L438.638 96.8465C438.358 97.1933 438.018 97.4641 437.642 97.6403C437.266 97.8166 436.862 97.8942 436.458 97.8678C436.055 97.8415 435.661 97.7118 435.303 97.4877C434.945 97.2636 434.632 96.9502 434.385 96.569L425.706 83.1701C425.459 82.789 425.284 82.3488 425.192 81.8796C425.101 81.4104 425.096 80.9233 425.177 80.4515Z" fill="#6C63FF"/>
<path d="M453.874 60.7818C462.354 60.7818 469.228 52.5936 469.228 42.4929C469.228 32.3923 462.354 24.204 453.874 24.204C445.394 24.204 438.52 32.3923 438.52 42.4929C438.52 52.5936 445.394 60.7818 453.874 60.7818Z" fill="#FFB8B8"/>
<path d="M468.825 131.329C468.672 131.329 468.52 131.314 468.37 131.285L435.142 124.796C434.767 124.723 434.408 124.56 434.087 124.316C433.766 124.073 433.49 123.755 433.275 123.381C433.06 123.007 432.912 122.585 432.838 122.14C432.764 121.696 432.766 121.238 432.845 120.795L434.462 111.717C433.634 110.246 426.896 97.4602 435.103 85.4502C434.946 81.1836 436.192 77.0123 438.578 73.8244C440.964 70.6365 444.3 68.6837 447.876 68.3818L465.048 66.8279C467.257 66.6282 469.474 67.0635 471.513 68.0971C473.551 69.1306 475.351 70.7323 476.761 72.7672C478.172 74.8021 479.151 77.2108 479.617 79.7906C480.084 82.3704 480.023 85.0458 479.44 87.5917L471.568 128.723C471.425 129.463 471.076 130.123 470.578 130.596C470.08 131.069 469.462 131.328 468.825 131.329V131.329Z" fill="#6C63FF"/>
<path d="M499.854 165.724C500.417 164.766 500.798 163.673 500.968 162.521C501.139 161.37 501.095 160.187 500.841 159.058C500.586 157.929 500.127 156.879 499.495 155.984C498.863 155.089 498.075 154.37 497.184 153.877L478.266 84.5915L467.302 90.7883L488.002 158.251C487.406 160.087 487.397 162.12 487.975 163.965C488.554 165.809 489.68 167.337 491.141 168.258C492.602 169.179 494.296 169.43 495.902 168.963C497.507 168.496 498.914 167.343 499.854 165.724V165.724Z" fill="#FFB8B8"/>
<path d="M482.45 96.1268L467.892 101.365C467.478 101.514 467.042 101.555 466.613 101.485C466.184 101.415 465.773 101.236 465.408 100.96C465.042 100.684 464.731 100.317 464.496 99.8848C464.26 99.4524 464.105 98.9647 464.042 98.4548L461.832 80.5874C461.203 78.0583 461.442 75.3353 462.496 73.0156C463.55 70.6959 465.334 68.9689 467.455 68.2135C469.577 67.4582 471.864 67.736 473.814 68.9862C475.764 70.2364 477.218 72.3567 477.857 74.8822L484.303 91.1643C484.488 91.6306 484.586 92.1387 484.59 92.6541C484.595 93.1695 484.507 93.68 484.331 94.151C484.155 94.6219 483.896 95.0422 483.571 95.3831C483.247 95.7241 482.865 95.9778 482.45 96.1268H482.45Z" fill="#6C63FF"/>
<path d="M438.949 43.1993C442.358 44.7467 446.068 45.0946 449.638 44.2016C453.208 43.3086 456.487 41.2123 459.085 38.1624C457.475 43.2306 457.925 64.7263 457.925 64.7263C457.925 64.7263 472.207 56.6496 474.145 55.2371C485.589 46.8941 469.805 10.6018 456.675 16.3254C454.451 17.2948 452.593 18.4355 451.694 21.0448C449.733 18.164 446.022 17.5391 443.167 19.0188C440.312 20.4985 438.283 23.7051 437.192 27.1784C436.33 29.9811 435.995 32.9749 436.21 35.9486C436.426 38.9223 437.186 41.8036 438.437 44.3893L438.949 43.1993Z" fill="black"/>
<path d="M371.951 0H20.6292C15.1597 0.00639516 9.91565 2.59736 6.04809 7.20426C2.18052 11.8112 0.0053612 18.0576 -7.62939e-06 24.5728V139.246C0.0053612 145.761 2.18052 152.007 6.04809 156.614C9.91565 161.221 15.1597 163.812 20.6292 163.819H371.951C377.421 163.812 382.665 161.221 386.532 156.614C390.4 152.007 392.575 145.761 392.58 139.246V24.5728C392.575 18.0576 390.4 11.8112 386.532 7.20426C382.665 2.59736 377.421 0.00639516 371.951 0V0ZM391.33 139.246C391.324 145.366 389.28 151.232 385.647 155.56C382.014 159.887 377.089 162.322 371.951 162.329H20.6292C15.4916 162.322 10.5663 159.887 6.93346 155.56C3.30062 151.232 1.25681 145.366 1.25025 139.246V24.5728C1.25681 18.4531 3.30062 12.5862 6.93346 8.2589C10.5663 3.93159 15.4916 1.49707 20.6292 1.48926H371.951C377.089 1.49707 382.014 3.93159 385.647 8.2589C389.28 12.5862 391.324 18.4531 391.33 24.5728V139.246Z" fill="white"/>
<path d="M55.4801 108.344C53.9964 108.344 52.5461 107.82 51.3125 106.838C50.0789 105.856 49.1174 104.46 48.5496 102.828C47.9818 101.195 47.8333 99.3982 48.1227 97.6649C48.4122 95.9315 49.1266 94.3394 50.1757 93.0897C51.2248 91.8401 52.5615 90.989 54.0166 90.6443C55.4718 90.2995 56.9801 90.4764 58.3508 91.1527C59.7216 91.8291 60.8931 92.9743 61.7174 94.4438C62.5417 95.9132 62.9816 97.6408 62.9816 99.4081C62.9794 101.777 62.1883 104.048 60.782 105.724C59.3757 107.399 57.4689 108.341 55.4801 108.344V108.344ZM55.4801 91.9618C54.2437 91.9618 53.0351 92.3985 52.0071 93.2167C50.9791 94.035 50.1778 95.1979 49.7047 96.5585C49.2315 97.9192 49.1077 99.4164 49.3489 100.861C49.5901 102.305 50.1855 103.632 51.0598 104.673C51.934 105.715 53.0479 106.424 54.2605 106.711C55.4732 106.999 56.7301 106.851 57.8724 106.288C59.0146 105.724 59.991 104.77 60.6779 103.545C61.3648 102.321 61.7314 100.881 61.7314 99.4081C61.7295 97.4339 61.0703 95.5412 59.8984 94.1452C58.7264 92.7493 57.1375 91.964 55.4801 91.9618V91.9618Z" fill="white"/>
<path d="M55.2339 88.2387C55.0681 88.2387 54.9091 88.1602 54.7919 88.0206C54.6747 87.8809 54.6088 87.6915 54.6088 87.494V78.9308C54.6088 78.7333 54.6747 78.5439 54.7919 78.4043C54.9091 78.2646 55.0681 78.1862 55.2339 78.1862C55.3997 78.1862 55.5587 78.2646 55.676 78.4043C55.7932 78.5439 55.8591 78.7333 55.8591 78.9308V87.494C55.8591 87.6915 55.7932 87.8809 55.676 88.0206C55.5587 88.1602 55.3997 88.2387 55.2339 88.2387Z" fill="#FCFCFC"/>
<path d="M45.4781 99.8597H38.2891C38.1233 99.8597 37.9643 99.7812 37.8471 99.6416C37.7298 99.502 37.664 99.3125 37.664 99.1151C37.664 98.9176 37.7298 98.7282 37.8471 98.5885C37.9643 98.4489 38.1233 98.3704 38.2891 98.3704H45.4781C45.6439 98.3704 45.8029 98.4489 45.9201 98.5885C46.0373 98.7282 46.1032 98.9176 46.1032 99.1151C46.1032 99.3125 46.0373 99.502 45.9201 99.6416C45.8029 99.7812 45.6439 99.8597 45.4781 99.8597Z" fill="white"/>
<path d="M71.7334 99.8597H64.5445C64.3787 99.8597 64.2197 99.7812 64.1024 99.6416C63.9852 99.502 63.9193 99.3125 63.9193 99.1151C63.9193 98.9176 63.9852 98.7282 64.1024 98.5885C64.2197 98.4489 64.3787 98.3704 64.5445 98.3704H71.7334C71.8992 98.3704 72.0582 98.4489 72.1755 98.5885C72.2927 98.7282 72.3586 98.9176 72.3586 99.1151C72.3586 99.3125 72.2927 99.502 72.1755 99.6416C72.0582 99.7812 71.8992 99.8597 71.7334 99.8597Z" fill="#F7F7F7"/>
<path d="M64.347 91.7178C64.2225 91.7178 64.1009 91.6736 63.9977 91.5908C63.8945 91.5079 63.8144 91.3903 63.7676 91.2529C63.7209 91.1155 63.7096 90.9647 63.7353 90.8196C63.761 90.6746 63.8224 90.5419 63.9117 90.4387L66.9223 86.9595C67.0413 86.822 67.2013 86.7465 67.367 86.7495C67.5328 86.7525 67.6908 86.8338 67.8062 86.9755C67.9217 87.1173 67.9851 87.3079 67.9826 87.5053C67.9801 87.7028 67.9118 87.891 67.7928 88.0285L64.7822 91.5077C64.6657 91.6427 64.5095 91.7181 64.347 91.7178V91.7178Z" fill="white"/>
<path d="M45.9881 91.7178C45.8256 91.7181 45.6694 91.6427 45.5528 91.5077L42.5423 88.0285C42.4833 87.9604 42.4363 87.8792 42.4037 87.7894C42.3711 87.6996 42.3537 87.6031 42.3525 87.5053C42.3512 87.4076 42.3662 87.3104 42.3964 87.2195C42.4267 87.1286 42.4717 87.0457 42.5288 86.9755C42.586 86.9053 42.6542 86.8493 42.7296 86.8105C42.8049 86.7717 42.886 86.751 42.968 86.7495C43.0501 86.748 43.1317 86.7658 43.208 86.8018C43.2843 86.8379 43.3539 86.8915 43.4128 86.9595L46.4234 90.4387C46.5127 90.5419 46.5741 90.6746 46.5998 90.8196C46.6255 90.9647 46.6142 91.1155 46.5675 91.2529C46.5207 91.3903 46.4406 91.5079 46.3374 91.5908C46.2342 91.6736 46.1126 91.7178 45.9881 91.7178Z" fill="white"/>
<path d="M43.6027 112.067C43.4798 112.067 43.3597 112.024 43.2573 111.943C43.1549 111.862 43.0748 111.747 43.027 111.612C42.9791 111.477 42.9657 111.329 42.9883 111.185C43.0109 111.041 43.0686 110.908 43.1541 110.803L46.1647 107.11C46.2802 106.969 46.4383 106.887 46.6041 106.885C46.7699 106.882 46.9298 106.957 47.0488 107.095C47.1678 107.233 47.236 107.421 47.2384 107.618C47.2408 107.816 47.1773 108.006 47.0618 108.148L44.0512 111.841C43.993 111.913 43.9232 111.969 43.8462 112.008C43.7691 112.047 43.6863 112.067 43.6027 112.067V112.067Z" fill="white"/>
<path d="M67.9827 112.811C67.8993 112.812 67.8167 112.792 67.7398 112.753C67.663 112.715 67.5935 112.658 67.5353 112.587L63.8997 108.149C63.8423 108.079 63.7971 107.996 63.7667 107.906C63.7362 107.815 63.721 107.718 63.722 107.62C63.723 107.522 63.7402 107.426 63.7725 107.336C63.8049 107.246 63.8518 107.165 63.9105 107.096C63.9692 107.028 64.0387 106.974 64.1149 106.938C64.1911 106.902 64.2726 106.884 64.3546 106.885C64.4367 106.886 64.5178 106.906 64.5932 106.945C64.6687 106.984 64.737 107.039 64.7943 107.109L68.43 111.547C68.5159 111.652 68.574 111.784 68.5969 111.928C68.6198 112.072 68.6065 112.221 68.5588 112.356C68.511 112.491 68.4309 112.606 68.3284 112.687C68.2259 112.768 68.1057 112.812 67.9827 112.811Z" fill="white"/>
<path d="M55.2339 120.258C55.0681 120.258 54.9091 120.179 54.7919 120.04C54.6747 119.9 54.6088 119.711 54.6088 119.513V110.95C54.6088 110.752 54.6747 110.563 54.7919 110.423C54.9091 110.284 55.0681 110.205 55.2339 110.205C55.3997 110.205 55.5587 110.284 55.676 110.423C55.7932 110.563 55.8591 110.752 55.8591 110.95V119.513C55.8591 119.711 55.7932 119.9 55.676 120.04C55.5587 120.179 55.3997 120.258 55.2339 120.258Z" fill="white"/>
<path d="M137.005 113.556H116.137C114.006 113.513 111.974 112.474 110.479 110.664C108.985 108.853 108.147 106.415 108.147 103.876C108.147 101.337 108.985 98.8988 110.479 97.0881C111.974 95.2774 114.006 94.2386 116.137 94.1957H117.733C118.525 92.1986 119.775 90.5094 121.339 89.3234C122.903 88.1374 124.717 87.5032 126.571 87.494C129.092 87.5215 131.51 88.6916 133.333 90.7664C135.155 92.8411 136.246 95.6648 136.384 98.6635H137.005C138.645 98.6957 140.209 99.4944 141.359 100.887C142.51 102.28 143.154 104.156 143.154 106.11C143.154 108.064 142.51 109.939 141.359 111.332C140.209 112.725 138.645 113.524 137.005 113.556V113.556ZM116.137 95.6849C114.337 95.7279 112.624 96.6098 111.363 98.1412C110.103 99.6726 109.397 101.732 109.397 103.876C109.397 106.02 110.103 108.079 111.363 109.611C112.624 111.142 114.337 112.024 116.137 112.067H137.005C138.314 112.035 139.559 111.393 140.475 110.279C141.391 109.166 141.904 107.669 141.904 106.11C141.904 104.551 141.391 103.054 140.475 101.94C139.559 100.827 138.314 100.185 137.005 100.153H135.778C135.612 100.153 135.453 100.074 135.336 99.9346C135.218 99.795 135.153 99.6056 135.153 99.4081C135.172 96.6712 134.28 94.0367 132.671 92.0824C131.063 90.128 128.869 89.0135 126.571 88.9833C124.891 88.9939 123.251 89.5919 121.853 90.7031C120.456 91.8143 119.363 93.3898 118.711 95.2341C118.662 95.3679 118.582 95.4819 118.48 95.5621C118.378 95.6422 118.258 95.6849 118.136 95.6849H116.137Z" fill="white"/>
<path d="M206.712 99.4503L206.225 98.0788C207.17 97.6027 208.003 96.8565 208.649 95.9061C209.296 94.9557 209.735 93.8303 209.93 92.6295C210.124 91.4286 210.068 90.1892 209.764 89.0207C209.461 87.8522 208.922 86.7905 208.192 85.9295C207.463 85.0685 206.567 84.4346 205.584 84.0838C204.6 83.7331 203.559 83.6762 202.553 83.9183C201.546 84.1604 200.606 84.6939 199.813 85.4718C199.021 86.2497 198.402 87.2481 198.01 88.3786L196.855 87.8107C197.325 86.4541 198.068 85.2562 199.018 84.3227C199.969 83.3892 201.098 82.749 202.305 82.4585C203.513 82.168 204.762 82.2362 205.942 82.6571C207.123 83.078 208.198 83.8386 209.073 84.8717C209.948 85.9049 210.595 87.1788 210.959 88.5809C211.323 89.983 211.391 91.4703 211.157 92.9112C210.924 94.3522 210.397 95.7025 209.621 96.843C208.846 97.9834 207.847 98.8789 206.712 99.4503V99.4503Z" fill="#3F3D56"/>
<path d="M207.645 113.556H186.777C184.645 113.513 182.613 112.474 181.119 110.664C179.624 108.853 178.786 106.415 178.786 103.876C178.786 101.337 179.624 98.8988 181.119 97.0881C182.613 95.2774 184.645 94.2386 186.777 94.1957H188.373C189.164 92.1986 190.415 90.5094 191.979 89.3234C193.543 88.1374 195.357 87.5032 197.211 87.494C199.732 87.5215 202.149 88.6916 203.972 90.7664C205.795 92.8411 206.886 95.6648 207.023 98.6635H207.645C209.285 98.6957 210.849 99.4944 211.999 100.887C213.149 102.28 213.794 104.156 213.794 106.11C213.794 108.064 213.149 109.939 211.999 111.332C210.849 112.725 209.285 113.524 207.645 113.556V113.556ZM186.777 95.6849C184.977 95.7279 183.263 96.6098 182.003 98.1412C180.743 99.6726 180.037 101.732 180.037 103.876C180.037 106.02 180.743 108.079 182.003 109.611C183.263 111.142 184.977 112.024 186.777 112.067H207.645C208.953 112.035 210.199 111.393 211.115 110.279C212.031 109.166 212.543 107.669 212.543 106.11C212.543 104.551 212.031 103.054 211.115 101.94C210.199 100.827 208.953 100.185 207.645 100.153H206.417C206.251 100.153 206.092 100.074 205.975 99.9346C205.858 99.795 205.792 99.6056 205.792 99.4081C205.812 96.6712 204.92 94.0367 203.311 92.0824C201.702 90.128 199.508 89.0135 197.211 88.9833C195.531 88.9939 193.89 89.5919 192.493 90.7031C191.095 91.8143 190.002 93.3898 189.35 95.2341C189.302 95.3679 189.222 95.4819 189.119 95.5621C189.017 95.6422 188.898 95.6849 188.776 95.6849H186.777Z" fill="#3F3D56"/>
<path d="M278.284 109.833H275.775C275.609 109.833 275.45 109.754 275.333 109.615C275.216 109.475 275.15 109.286 275.15 109.088C275.15 108.891 275.216 108.701 275.333 108.562C275.45 108.422 275.609 108.344 275.775 108.344H278.284C279.593 108.311 280.838 107.67 281.754 106.556C282.67 105.442 283.183 103.946 283.183 102.387C283.183 100.828 282.67 99.3309 281.754 98.2172C280.838 97.1036 279.593 96.4618 278.284 96.4296H277.057C276.891 96.4296 276.732 96.3511 276.615 96.2115C276.497 96.0718 276.432 95.8824 276.432 95.685C276.451 92.948 275.559 90.3135 273.95 88.3592C272.342 86.4049 270.148 85.2904 267.85 85.2601C266.17 85.2707 264.53 85.8687 263.132 86.98C261.735 88.0912 260.642 89.6667 259.989 91.511C259.941 91.6448 259.861 91.7588 259.759 91.8389C259.657 91.9191 259.537 91.9618 259.415 91.9618H257.416C255.616 92.0048 253.902 92.8866 252.642 94.4181C251.382 95.9495 250.676 98.0084 250.676 100.153C250.676 102.297 251.382 104.356 252.642 105.887C253.902 107.419 255.616 108.301 257.416 108.344H259.354C259.52 108.344 259.679 108.422 259.796 108.562C259.913 108.701 259.979 108.891 259.979 109.088C259.979 109.286 259.913 109.475 259.796 109.615C259.679 109.754 259.52 109.833 259.354 109.833H257.416C255.285 109.79 253.253 108.751 251.758 106.941C250.263 105.13 249.426 102.692 249.426 100.153C249.426 97.6134 250.263 95.1757 251.758 93.365C253.253 91.5542 255.285 90.5155 257.416 90.4725H259.012C259.804 88.4755 261.054 86.7862 262.618 85.6002C264.182 84.4143 265.996 83.78 267.85 83.7709C270.371 83.7984 272.789 84.9685 274.612 87.0432C276.434 89.118 277.525 91.9417 277.663 94.9403H278.284C279.924 94.9725 281.488 95.7712 282.638 97.1642C283.789 98.5571 284.433 100.433 284.433 102.387C284.433 104.341 283.789 106.216 282.638 107.609C281.488 109.002 279.924 109.801 278.284 109.833V109.833Z" fill="white"/>
<path d="M267.747 113.047C267.581 113.047 267.422 112.969 267.305 112.829C267.188 112.69 267.122 112.5 267.122 112.303V103.74C267.122 103.542 267.188 103.353 267.305 103.213C267.422 103.073 267.581 102.995 267.747 102.995C267.913 102.995 268.072 103.073 268.189 103.213C268.306 103.353 268.372 103.542 268.372 103.74V112.303C268.372 112.5 268.306 112.69 268.189 112.829C268.072 112.969 267.913 113.047 267.747 113.047V113.047Z" fill="#DFDCFF"/>
<path d="M263.371 117.515C263.205 117.515 263.046 117.437 262.929 117.297C262.812 117.157 262.746 116.968 262.746 116.771V108.207C262.746 108.01 262.812 107.82 262.929 107.681C263.046 107.541 263.205 107.463 263.371 107.463C263.537 107.463 263.696 107.541 263.813 107.681C263.93 107.82 263.996 108.01 263.996 108.207V116.771C263.996 116.968 263.93 117.157 263.813 117.297C263.696 117.437 263.537 117.515 263.371 117.515Z" fill="white"/>
<path d="M272.123 119.749C271.957 119.749 271.798 119.671 271.681 119.531C271.563 119.391 271.498 119.202 271.498 119.004V110.441C271.498 110.244 271.563 110.054 271.681 109.915C271.798 109.775 271.957 109.697 272.123 109.697C272.288 109.697 272.447 109.775 272.565 109.915C272.682 110.054 272.748 110.244 272.748 110.441V119.004C272.748 119.202 272.682 119.391 272.565 119.531C272.447 119.671 272.288 119.749 272.123 119.749V119.749Z" fill="#EDEDED"/>
<path d="M348.924 109.833H346.414C346.249 109.833 346.09 109.754 345.972 109.615C345.855 109.475 345.789 109.286 345.789 109.088C345.789 108.891 345.855 108.701 345.972 108.562C346.09 108.422 346.249 108.344 346.414 108.344H348.924C350.232 108.311 351.478 107.67 352.394 106.556C353.309 105.442 353.822 103.946 353.822 102.387C353.822 100.828 353.309 99.3309 352.394 98.2172C351.478 97.1036 350.232 96.4618 348.924 96.4296H347.696C347.53 96.4296 347.371 96.3511 347.254 96.2115C347.137 96.0718 347.071 95.8824 347.071 95.685C347.091 92.948 346.198 90.3135 344.59 88.3592C342.981 86.4049 340.787 85.2904 338.49 85.2601C336.81 85.2707 335.169 85.8687 333.772 86.98C332.374 88.0912 331.281 89.6667 330.629 91.511C330.581 91.6448 330.501 91.7588 330.398 91.8389C330.296 91.9191 330.177 91.9618 330.054 91.9618H328.056C326.256 92.0048 324.542 92.8866 323.282 94.4181C322.022 95.9495 321.316 98.0084 321.316 100.153C321.316 102.297 322.022 104.356 323.282 105.887C324.542 107.419 326.256 108.301 328.056 108.344H329.994C330.159 108.344 330.318 108.422 330.436 108.562C330.553 108.701 330.619 108.891 330.619 109.088C330.619 109.286 330.553 109.475 330.436 109.615C330.318 109.754 330.159 109.833 329.994 109.833H328.056C325.924 109.79 323.892 108.751 322.398 106.941C320.903 105.13 320.065 102.692 320.065 100.153C320.065 97.6134 320.903 95.1757 322.398 93.365C323.892 91.5542 325.924 90.5155 328.056 90.4725H329.652C330.443 88.4755 331.694 86.7862 333.258 85.6002C334.822 84.4143 336.636 83.78 338.49 83.7709C341.011 83.7984 343.428 84.9685 345.251 87.0432C347.074 89.118 348.165 91.9417 348.302 94.9403H348.924C350.564 94.9725 352.128 95.7712 353.278 97.1642C354.428 98.5571 355.073 100.433 355.073 102.387C355.073 104.341 354.428 106.216 353.278 107.609C352.128 109.002 350.564 109.801 348.924 109.833V109.833Z" fill="#FAFAFA"/>
<path d="M337.413 107.971C338.19 107.971 338.819 107.221 338.819 106.296C338.819 105.371 338.19 104.621 337.413 104.621C336.636 104.621 336.006 105.371 336.006 106.296C336.006 107.221 336.636 107.971 337.413 107.971Z" fill="#FCFCFF"/>
<path d="M342.101 110.205C342.878 110.205 343.508 109.455 343.508 108.53C343.508 107.605 342.878 106.854 342.101 106.854C341.324 106.854 340.695 107.605 340.695 108.53C340.695 109.455 341.324 110.205 342.101 110.205Z" fill="white"/>
<path d="M334.287 112.811C335.064 112.811 335.694 112.061 335.694 111.136C335.694 110.211 335.064 109.461 334.287 109.461C333.51 109.461 332.881 110.211 332.881 111.136C332.881 112.061 333.51 112.811 334.287 112.811Z" fill="#FCFCFC"/>
<path d="M339.288 116.535C340.065 116.535 340.695 115.785 340.695 114.859C340.695 113.934 340.065 113.184 339.288 113.184C338.511 113.184 337.882 113.934 337.882 114.859C337.882 115.785 338.511 116.535 339.288 116.535Z" fill="white"/>
<path d="M73.14 53.2411H36.8825C35.5562 53.2411 34.2842 52.6134 33.3463 51.4963C32.4084 50.3791 31.8815 48.8639 31.8815 47.284C31.8815 45.7041 32.4084 44.1889 33.3463 43.0717C34.2842 41.9546 35.5562 41.327 36.8825 41.327H73.14C74.4663 41.327 75.7383 41.9546 76.6762 43.0717C77.6141 44.1889 78.141 45.7041 78.141 47.284C78.141 48.8639 77.6141 50.3791 76.6762 51.4963C75.7383 52.6134 74.4663 53.2411 73.14 53.2411Z" fill="#6C63FF"/>
<path d="M143.779 53.2411H107.522C106.196 53.2411 104.924 52.6134 103.986 51.4963C103.048 50.3791 102.521 48.8639 102.521 47.284C102.521 45.7041 103.048 44.1889 103.986 43.0717C104.924 41.9546 106.196 41.327 107.522 41.327H143.779C145.106 41.327 146.378 41.9546 147.316 43.0717C148.254 44.1889 148.78 45.7041 148.78 47.284C148.78 48.8639 148.254 50.3791 147.316 51.4963C146.378 52.6134 145.106 53.2411 143.779 53.2411Z" fill="#6C63FF"/>
<path d="M214.419 53.2411H178.161C176.835 53.2411 175.563 52.6134 174.625 51.4963C173.687 50.3791 173.16 48.8639 173.16 47.284C173.16 45.7041 173.687 44.1889 174.625 43.0717C175.563 41.9546 176.835 41.327 178.161 41.327H214.419C215.745 41.327 217.017 41.9546 217.955 43.0717C218.893 44.1889 219.42 45.7041 219.42 47.284C219.42 48.8639 218.893 50.3791 217.955 51.4963C217.017 52.6134 215.745 53.2411 214.419 53.2411Z" fill="#6C63FF"/>
<path d="M285.058 53.2411H248.801C247.475 53.2411 246.203 52.6134 245.265 51.4963C244.327 50.3791 243.8 48.8639 243.8 47.284C243.8 45.7041 244.327 44.1889 245.265 43.0717C246.203 41.9546 247.475 41.327 248.801 41.327H285.058C286.385 41.327 287.657 41.9546 288.595 43.0717C289.532 44.1889 290.059 45.7041 290.059 47.284C290.059 48.8639 289.532 50.3791 288.595 51.4963C287.657 52.6134 286.385 53.2411 285.058 53.2411Z" fill="#6C63FF"/>
<path d="M355.698 53.2411H319.44C318.114 53.2411 316.842 52.6134 315.904 51.4963C314.966 50.3791 314.439 48.8639 314.439 47.284C314.439 45.7041 314.966 44.1889 315.904 43.0717C316.842 41.9546 318.114 41.327 319.44 41.327H355.698C357.024 41.327 358.296 41.9546 359.234 43.0717C360.172 44.1889 360.699 45.7041 360.699 47.284C360.699 48.8639 360.172 50.3791 359.234 51.4963C358.296 52.6134 357.024 53.2411 355.698 53.2411Z" fill="#6C63FF"/>
<path d="M88.7682 123.236C88.6024 123.236 88.4434 123.158 88.3261 123.018C88.2089 122.879 88.1431 122.689 88.1431 122.492V65.8998C88.1431 65.7023 88.2089 65.5129 88.3261 65.3732C88.4434 65.2336 88.6024 65.1551 88.7682 65.1551C88.934 65.1551 89.093 65.2336 89.2102 65.3732C89.3274 65.5129 89.3933 65.7023 89.3933 65.8998V122.492C89.3933 122.689 89.3274 122.879 89.2102 123.018C89.093 123.158 88.934 123.236 88.7682 123.236Z" fill="#E6E6E6"/>
<path d="M159.408 122.492C159.242 122.492 159.083 122.413 158.966 122.274C158.848 122.134 158.783 121.944 158.783 121.747V65.1551C158.783 64.9576 158.848 64.7682 158.966 64.6286C159.083 64.489 159.242 64.4105 159.408 64.4105C159.573 64.4105 159.732 64.489 159.85 64.6286C159.967 64.7682 160.033 64.9576 160.033 65.1551V121.747C160.033 121.944 159.967 122.134 159.85 122.274C159.732 122.413 159.573 122.492 159.408 122.492Z" fill="#E6E6E6"/>
<path d="M233.798 122.492C233.632 122.492 233.473 122.413 233.356 122.274C233.239 122.134 233.173 121.944 233.173 121.747V65.1551C233.173 64.9576 233.239 64.7682 233.356 64.6286C233.473 64.489 233.632 64.4105 233.798 64.4105C233.964 64.4105 234.123 64.489 234.24 64.6286C234.357 64.7682 234.423 64.9576 234.423 65.1551V121.747C234.423 121.944 234.357 122.134 234.24 122.274C234.123 122.413 233.964 122.492 233.798 122.492Z" fill="#E6E6E6"/>
<path d="M304.437 122.492C304.272 122.492 304.113 122.413 303.995 122.274C303.878 122.134 303.812 121.944 303.812 121.747V65.1551C303.812 64.9576 303.878 64.7682 303.995 64.6286C304.113 64.489 304.272 64.4105 304.437 64.4105C304.603 64.4105 304.762 64.489 304.879 64.6286C304.997 64.7682 305.062 64.9576 305.062 65.1551V121.747C305.062 121.944 304.997 122.134 304.879 122.274C304.762 122.413 304.603 122.492 304.437 122.492Z" fill="#E6E6E6"/>
<path d="M564.375 312H326.201C326.035 312 325.876 311.922 325.759 311.782C325.642 311.642 325.576 311.453 325.576 311.255C325.576 311.058 325.642 310.868 325.759 310.729C325.876 310.589 326.035 310.511 326.201 310.511H564.375C564.541 310.511 564.7 310.589 564.817 310.729C564.934 310.868 565 311.058 565 311.255C565 311.453 564.934 311.642 564.817 311.782C564.7 311.922 564.541 312 564.375 312Z" fill="#3F3D56"/>
</g>
<defs>
<clipPath id="clip0">
<rect width="565" height="312" fill="white"/>
</clipPath>
</defs>
</svg>
